<?xml version="1.0" encoding="UTF-8"?>
<svg id="_레이어_1" xmlns="http://www.w3.org/2000/svg" version="1.1" viewBox="0 0 256 256">
  <!-- Generator: Adobe Illustrator 29.0.0, SVG Export Plug-In . SVG Version: 2.1.0 Build 186)  -->
  <defs>
    <style>
      .st0 {
        fill: #242938;
      }

      .st1 {
        stroke: #fdc842;
        stroke-miterlimit: 10;
        stroke-width: 17px;
      }

      .st2 {
        fill: #fdc842;
      }

      .st3 {
        display: none;
        fill: #f60;
      }
    </style>
  </defs>
  <rect class="st0" width="256" height="256" rx="57.5" ry="57.5"/>
  <path class="st3" d="M0,9.3c0,1.5,1.2,2.7,2.7,2.7"/>
  <path class="st1" d="M128,223.4c-52.6,0-95.4-42.8-95.4-95.4S75.4,32.6,128,32.6s95.4,42.8,95.4,95.4-42.8,95.4-95.4,95.4h0Z"/>
  <path class="st2" d="M119.9,111.1l24.8,26.8c1,1,1.7,2.4,1.7,3.8l-2.2,53.1c0,4.2,2.7,7.5,6.6,6.1,23.5-8.2,37.8-21.1,44.9-38,1-2.4.7-5.2-1-7l-21.6-23.1c-1.7-1.7-2.6-4-2.6-6.4l-.2-12.8c0-3.3,2.7-6,6-6l17.3.2c8.2,0,8.9-3,7.7-6.4-8.1-22.4-22.7-38.3-44.9-46.7-2.5-1-5.3.8-5.4,3.5l-1.4,22.6c-.1,2.5-2.1,4.4-4.5,4.4h-12.1c-3.2,0-6-1.6-7.3-2.9l-24.6-24.6c-1.5-1.4-3.7-1.9-5.6-1-19.7,9-33.2,23.5-41.1,44.1-1.2,3.2,1.4,6.6,4.8,6.6l52.8.3c2.9.1,5.7,1.3,7.7,3.3h0ZM137.2,97c3.4-3.3,11.4-1.7,16.9,3.9,5.4,5.6,8.6,13.6,3.5,17.8-3.6,3-9.6,1.9-15.5-3.2-6.6-5.6-8.8-14.8-5-18.5h0Z"/>
</svg>