<?xml version="1.0" encoding="UTF-8"?>
<svg id="_레이어_1" xmlns="http://www.w3.org/2000/svg" version="1.1" viewBox="0 0 256 256">
  <!-- Generator: Adobe Illustrator 29.0.0, SVG Export Plug-In . SVG Version: 2.1.0 Build 186)  -->
  <defs>
    <style>
      .st0 {
        fill: #242938;
      }

      .st1 {
        fill: #b7b7b7;
      }
    </style>
  </defs>
  <rect class="st0" x=".2" y="0" width="256" height="256" rx="57.5" ry="57.5"/>
  <path class="st1" d="M128.2,21.7c-55,0-100.2,41.7-105.7,95.2-.4,3.7-.6,7.4-.6,11.2s.2,7.5.6,11.2c5.6,53.5,50.8,95.2,105.7,95.2s106.4-47.6,106.4-106.4S187,21.7,128.2,21.7ZM197.7,188.4c-11.6-4.4-30.4-10.8-42.1-14.3-1.2-.4-1.4-.5-1.4-5.5s1.7-8.3,3.4-11.9c1.8-3.8,3.9-10.3,4.7-16.2,2.1-2.5,5.1-7.4,7-16.8,1.6-8.3.9-11.3-.2-14.1-.1-.3-.3-.6-.3-.9-.4-1.9.2-12,1.6-19.8,1-5.4-.3-16.8-7.6-26.2-4.7-6-13.6-13.3-29.9-14.3h-8.9c-16.1,1-25,8.3-29.7,14.3-7.4,9.5-8.6,20.9-7.7,26.2,1.4,7.8,2,17.9,1.6,19.8-.1.4-.2.6-.3.9-1.1,2.8-1.9,5.8-.2,14.1,1.9,9.4,4.8,14.3,7,16.8.8,5.8,2.9,12.3,4.7,16.2,1.3,2.8,1.9,6.6,1.9,12.1s-.2,5.1-1.3,5.5c-12.1,3.6-30.1,9.9-40.9,14.2-14.7-16.8-22.7-38-22.7-60.5s9.6-47.7,26.9-65.1,40.5-26.9,65.1-26.9,47.7,9.6,65.1,26.9,26.9,40.5,26.9,65.1-8,43.7-22.6,60.4Z"/>
</svg>