<?xml version="1.0" encoding="UTF-8"?>
<svg id="_레이어_1" xmlns="http://www.w3.org/2000/svg" version="1.1" viewBox="0 0 256 256">
  <!-- Generator: Adobe Illustrator 29.0.0, SVG Export Plug-In . SVG Version: 2.1.0 Build 186)  -->
  <defs>
    <style>
      .st0 {
        fill: #e00036;
        stroke: #e00036;
        stroke-miterlimit: 10;
        stroke-width: .2px;
      }

      .st1 {
        fill: #242938;
      }
    </style>
  </defs>
  <rect class="st1" x=".2" y="0" width="256" height="256" rx="57.5" ry="57.5"/>
  <path class="st0" d="M128,20.4c-59.4,0-107.7,48.3-107.7,107.6s48.3,107.6,107.7,107.6,107.6-48.3,107.6-107.6c0-59.4-48.3-107.6-107.6-107.6ZM128,24.9c56.9,0,103.1,46.3,103.1,103.1s-46.2,103.1-103.1,103.1S24.9,184.9,24.9,128,71.1,24.9,128,24.9h0ZM118.1,31.4v1c.8,0,1.3.1,1.5.1l.4.2.2.4c0,.2,0,.5,0,1.1v3.3c0,0,0,3.7,0,3.7,0,1,0,1.9,0,2.5,0,.7,0,1.4-.2,2.1v.4c-.1,0-.4.1-.4.1-.1,0-.6,0-1.5.1v1c1.3,0,2.3,0,3,0s1,0,2.5,0v-.9h-.2s-1.1,0-1.1,0h-.4c0-.1-.1-.3-.1-.3,0-.2-.1-.7-.1-1.6,0-1.3,0-2.5,0-3.7v-5.7c4.5,5.5,8,9.7,10.5,12.5.6,0,1.3.2,2,.3h.1c-.1-1.2-.1-4.3-.1-9.4s0-1.7,0-3c0-1.4.1-2.3.2-2.6v-.2c.3,0,.9-.2,1.8-.2v-1c-1.2,0-2.2,0-2.9,0s-1.6,0-2.6,0v1c1,0,1.6.1,1.8.2l.2.6c0,.7.1,3.1.1,7.3v2.7c-1.1-1.1-2.4-2.6-4-4.6-2.3-2.7-4.1-5-5.7-7.1h-1.1s-1.7,0-1.7,0c-.5,0-1.2,0-2.1,0h0ZM114,32l-2.5.6h-.3c-.2.1-1.1.3-2.5.6l.2.9c.8-.2,1.4-.2,1.7-.1l.3.2c.1.2.3.7.6,1.7.1.4.4,1.7.9,3.6l.5,2.3c.4,1.6.5,2.7.4,3.4-.1.6-.5,1.2-1,1.7-.5.5-1.3.9-2.4,1.1-.9.2-1.7.2-2.3.1-.6-.1-1.2-.4-1.5-.7-.4-.3-.7-.9-.9-1.6-.1-.3-.3-1.2-.6-2.5l-.3-1.3-.6-2.6c-.4-1.6-.6-2.6-.6-3.1v-.5c.3-.2.8-.4,1.6-.6l-.2-.9h-.4c0,.1-1.5.5-1.5.5l-1.5.4-3.7.8.2.9,1.5-.2.3.2.3.7c.3.9.5,1.8.7,2.9l.7,2.9.5,2.2c.3,1.2.5,1.9.6,2.2l.8,1.3c.4.4.8.7,1.3,1,.5.3,1.2.4,2,.5,1.1,0,2.2,0,3.3-.3,1-.2,1.8-.5,2.5-.9.7-.4,1.3-.9,1.7-1.4.4-.6.7-1.1.9-1.7.2-.6.2-1.3.2-2,0-.7-.2-1.5-.3-2.1l-.6-2.7c-.2-.8-.4-1.8-.7-3.2-.3-1.4-.4-2.2-.4-2.3v-.4c.3-.2.7-.3,1.4-.5l-.2-.9ZM139.9,32.4v1c.7.2,1.1.3,1.3.3l.2.2v.2c0,.2,0,.8,0,1.8,0,.4-.2,1.4-.4,2.8l-.7,4.6c-.1.8-.3,1.6-.5,2.4-.1.6-.2,1.3-.2,1.3v.2c-.1,0-.5,0-.5,0-.1,0-.6,0-1.3-.1l-.2,1c.9,0,2,.2,3.2.4,1.4.2,2.6.4,3.8.6l.2-1c-.7-.1-1.2-.2-1.3-.3h-.3c0-.1-.1-.4-.1-.4,0-.2,0-1.1.1-1.8l.3-2,.7-4.4c0-.1.2-1.1.5-2.9,0-.5.2-.9.2-1.1l.2-.7v-.2c.1,0,.5,0,.5,0,.2,0,.6,0,1.3.1l.2-1c-1.2-.1-2.5-.3-3.8-.5-1.2-.2-2.3-.4-3.2-.5h0ZM150.5,34.2l-.3.9c.7.2,1.1.5,1.2.6.1.1.2.5.3,1.1,0,.6.3,2.6.5,5.8l.3,4.2c.1,1.5.2,3.1.3,4.8l1.6.5c.8-1.1,2.3-2.9,4.5-5.4l2.6-3,1.3-1.5c1.1-1.3,1.8-1.9,2-2,.1,0,.6,0,1.3.2l.3-1-2.3-.7-2.7-1-.3.9,1.1.5.4.2v.2c.1,0,0,.3,0,.3v.3c-.3.3-.7.8-1.3,1.5-.9,1.1-1.3,1.7-1.4,1.8l-4.3,5.1-.5-7.5v-.2c0,0,0-.5,0-1.2-.1-1.3-.1-2.1,0-2.3l.2-.2h.4c.3,0,.8,0,1.3.3l.3-.9-3.9-1.2c-.4-.1-1.4-.5-3.1-1.1ZM170,41.1l-.5.8c.7.5,1.2.8,1.3,1v.3c0,.2-.2.6-.6,1.4-.6,1.1-1,1.8-1.1,1.9l-2.5,4.4c-.3.5-.8,1.3-1.5,2.4-.4.6-.7,1-.9,1.3h-1.3s-.3.5-.3.5c2,1.1,3.1,1.7,3.3,1.8.6.3,1.7.9,3.2,1.9l1.6,1c.8.4,1.4.7,1.8.9h.2c.5-.9,1.2-1.9,2.1-3.1l-.8-.5c-.6.8-1.1,1.3-1.4,1.6h-.2c-.2.1-.6,0-1.2-.3-.7-.3-1.3-.7-2-1.1-.7-.4-1.3-.8-1.8-1.1l.7-1.2,2.4-4.1c.4.2,1,.5,1.6.9.7.4,1.2.8,1.6,1.1l.3.5c0,.2-.2.8-.7,1.5l.8.5,1.2-2.2,1.3-2.1-.8-.4c-.3.6-.6,1-.9,1.2h-.2c0,.1-.7-.2-.7-.2-.9-.5-1.5-.8-1.6-.9l-1.4-.8,1.2-2c.6-1.1,1.3-2.1,1.8-2.7.6.3,1.2.6,1.8,1,.6.4,1.2.7,1.8,1.2l.7.6v.3c0,.2-.3.7-.7,1.5l.8.4c.5-.8.8-1.3.9-1.3l1-1.3v-.2l-.3-.2c-.7-.4-1.1-.7-1.4-.8l-2-1.1c-1-.6-2-1.1-3-1.7l-1.3-.7-2.2-1.4ZM80.6,44.7c-.7,0-1.6.4-2.6.7-1.1.4-2.2,1-3.2,1.6-.8.5-1.6,1.1-2.3,1.7-.7.6-1.2,1.3-1.7,2.1-.5.8-.8,1.6-.9,2.5-.2.9-.2,1.8,0,2.7.2.9.6,1.9,1.2,2.9.7,1.2,1.6,2.1,2.7,2.8.7.5,1.5.8,2.4,1,.9.2,1.8.2,2.8.1,1.4-.2,2.8-.8,4.3-1.7.9-.5,1.7-1.2,2.5-1.9.8-.7,1.6-1.7,2.5-2.9l-1-1.4c-.2-.3-.5-.9-1-1.6l-.2-.6.5-.8-.4-.6-2.9,1.9-2.9,1.8.5.8c1-.6,1.7-.9,1.9-.9h.4c.1,0,.4.4.7,1l.6.9.6,1-1,1.2-1.2.9c-1.5.9-3.1,1.1-4.8.7-1.7-.5-3.2-1.7-4.3-3.6-1.1-1.8-1.5-3.4-1.1-5,.3-1.6,1.3-2.9,2.9-3.9.7-.4,1.3-.7,2-.9.6-.2,1.2-.3,1.9-.3l.8.2.5.7.6.9.8-.5c-.8-1.5-1.3-2.6-1.5-3.3h-.2ZM184.4,49.7l-.6.7c.7.7,1,1.1,1.1,1.2v.3c0,.2-.4.6-1,1.4l-1.5,1.9-2.7,3.2-2.2,2.5-.9.9-.3.2h-.2c-.1,0-.6-.4-1.3-.9l-.6.8c.9.7,1.7,1.3,2.5,2,1,.8,2,1.7,3,2.5l.6-.7c-.6-.5-.9-.8-1-.9l-.2-.3v-.2s.4-.7.4-.7c.1-.2.7-.9,1.6-2.1.8-1,1.5-1.9,2.2-2.8.5-.6,1.4-1.6,2.8-3.2.6-.7,1-1.2,1.2-1.4l.9.6c.6.5,1,.9,1.2,1.2.3.4.4.9.4,1.5,0,.5-.3,1.1-.7,1.6-.4.5-.9.9-1.5,1.1-.6.3-1.2.3-1.6.2-.5-.1-1.1-.5-1.7-1.1l-.3.2v1c0,.8,0,1.9-.3,3.2l-.7,4.6-.2.7,1.4,1.1c.4.3,1,.9,1.9,1.6l.6-.7-.5-.5v-.5c-.1-.2,0-.7,0-1.7,0,0,0-.5.1-1.3l.3-3.1v-.2s.1-.8.1-.8l.2-1.2c1.2.4,2.2.5,3.1.3.9-.2,1.6-.7,2.2-1.4.5-.6.8-1.2.8-1.9,0-.7-.1-1.3-.5-1.8-.3-.5-1-1.1-1.9-1.9-.5-.4-1.1-.8-1.8-1.4-.5-.3-1-.8-1.6-1.3-.7-.6-1.3-1-1.6-1.4-.8-.7-1.2-1.1-1.4-1.2h0ZM128.3,53.1c-36.6,0-68.1,27-73.8,63-.7,2-3.1,9.8.7,17.9,0,0-3.6-1.9-5.1-2,0,0-1.1,6.5,2.9,11.2,0,0-3.3-.6-6.8,1.4,0,0,3.7,7.9,12.1,10.5,0,0,.6,1.5,1.2,2.6,0,0-5.6-.9-11,1.4,0,0,4.5,5,6.2,5.7,0,0,4.2,2.6,6.4,2.9l-1.7.6s7.8,10.4,14.7,11.6c0,0-4.9,1.4-6.8,3.7,0,0,8.8,8.2,20.5,5.7,0,0-2.5,2.6-3.7,5.3,0,0,7.7,2.2,15.5-.6l-.8,1.9s5.1,1.1,12.6-3.9l3.1,2.2s-9,1.5-14.9,3.7l6.2,4.5s.6-.6,4.8-2.6c0,0,11.6,2.4,17.8,2.1,6.1.2,17.8-2.1,17.8-2.1,4.2,2,4.8,2.6,4.8,2.6l6.2-4.5c-5.9-2.2-14.9-3.7-14.9-3.7l3.1-2.2c7.4,4.9,12.6,3.9,12.6,3.9l-.8-1.9c7.8,2.8,15.5.6,15.5.6-1.2-2.6-3.7-5.3-3.7-5.3,11.6,2.5,20.5-5.7,20.5-5.7-1.9-2.4-6.8-3.7-6.8-3.7,7-1.2,14.7-11.6,14.7-11.6l-1.7-.6c2.2-.3,6.4-2.9,6.4-2.9,1.7-.8,6.2-5.7,6.2-5.7-5.4-2.3-11-1.4-11-1.4.6-1.1,1.2-2.6,1.2-2.6,8.4-2.6,12.1-10.5,12.1-10.5-3.6-2-6.8-1.4-6.8-1.4,4-4.7,2.9-11.2,2.9-11.2-1.5.2-5.1,2-5.1,2,4-8.6,1.1-16.8.6-18.2-5.8-35.9-37.2-62.7-73.7-62.7h0ZM63.1,55.4c-.6.8-1.2,1.5-1.9,2.3-.5.6-1.1,1.2-1.8,1.9l.7.6c.7-.7,1.1-1.2,1.4-1.2l.5.2c.6.4,2.5,2,5.6,4.7l2,1.7c-1.5,0-3.5,0-6.1,0-3.5,0-6.5-.2-9.1-.4l-.7.8-1.1,1.3c-.3.4-.8.9-1.5,1.6l.7.6c.6-.6.9-.9,1.1-1l.4-.2h.4c0,.1.9.8.9.8l2.6,2.2,2.8,2.4c.8.7,1.4,1.2,1.8,1.7.8.8,1.3,1.3,1.5,1.5l.2.4v.3c0,.1-.4.5-1,1.2l.7.7c.8-1,1.5-1.8,1.9-2.3.1-.1.7-.7,1.6-1.8l-.7-.6v.2c-.1,0-.9.8-.9.8l-.3.2h-.3c-.2-.1-.6-.4-1.3-1-1-.8-1.9-1.6-2.8-2.4l-4.3-3.8c7.2.2,12.6.4,16.3.3.5-.4,1-.9,1.5-1.3v-.2c-.9-.6-3.2-2.6-7-6-.5-.4-1.2-1.1-2.2-2-1-.9-1.6-1.6-1.8-1.9v-.2c0-.2.3-.7.9-1.4l-.7-.6ZM128.3,57.1c35,0,65,26.1,69.9,60.7h0c-.9.8-1.8,1.7-2.5,2.7l-1.6,2.7c-2.9,6.1-2.2,12.8-2.2,12.8-6.2-5.6-16-1.1-16-1.1.3,1.1,3.6,3.5,3.6,3.5.1,11.7,7.1,14.1,7.1,14.1-2.5,1.9-3.1,3.9-3.1,3.9-3.6-4.5-11.5-3.6-11.5-3.6,0,8.2,8.7,12.2,8.7,12.2-.8,3.6-.3,5.3-.3,5.3-2.9,1.4-6.2,5.4-6.2,5.4.9-8.7-2.2-11.6-2.2-11.6-5.3,3.1-7.4,9-7.4,9-8.8.9-13.7,7.3-13.7,7.3l.6-2.8c-16.4,3.6-16.3,15.2-16.3,15.2l-.8-.3c-.9-5.3-5.8-5.2-6.3-5.1-.5,0-5.4-.2-6.3,5.1l-.8.3s.1-11.6-16.3-15.2l.6,2.8s-4.8-6.4-13.6-7.3c0,0-2.2-5.9-7.4-9,0,0-3.1,2.9-2.2,11.6,0,0-3.3-4-6.2-5.4,0,0,.5-1.7-.3-5.3,0,0,8.7-4,8.7-12.2,0,0-7.9-1-11.5,3.6,0,0-.6-2-3.1-3.9,0,0,7-2.4,7.1-14.1,0,0,3.2-2.5,3.6-3.5,0,0-9.8-4.5-16,1.1,0,0,1.3-11.9-6.4-18.3h.1c4.9-34.6,34.9-60.6,69.9-60.6h0ZM128,62.4h0c0,0-2.9,3.1-2.9,3.1l-.2,5.4c-7.4,1.3-25.2,6.8-18.4,29.2,0,0-26.4,12.1-24.9,34.1,0,0-1.5,23.7,23.9,25.1,0,0,20,.8,15.8-16.9h-8.5s5.8,9.1-4.5,10.6c0,0-12.1,2.1-11.3-17.1,0,0,1.3-22.2,18.3-35.4,0,0-5.7-6.4-2.6-14.1,0,0,2.5-8.7,12.1-10.9l-.8,30.4,4.1,2.5h0c0,0,0,0,0,0h0s0,0,0,0l4-2.5-.8-30.3c9.5,2.2,12,10.8,12,10.8,3,7.7-2.7,14.1-2.7,14.1,17,13.2,18.3,35.4,18.3,35.4.8,19.2-11.3,17.1-11.3,17.1-10.4-1.5-4.5-10.6-4.5-10.6h-8.5c-4.1,17.7,15.8,16.9,15.8,16.9,25.4-1.3,23.9-25.1,23.9-25.1,1.5-22-24.9-34.1-24.9-34.1,6.8-22.3-10.8-27.8-18.3-29.2l-.2-5.5-2.9-3h0c0,0,0,0,0,0h0ZM198.8,64.6c-.4,0-.8,0-1.1.1-.8.1-1.5.5-2.2,1l-1.2,1.2c-.3.5-.5,1-.5,1.5,0,.5,0,1.1.3,1.8.2.4.5,1.3,1.2,2.5.4.9.6,1.5.7,2l-.2,1.1-.8,1-1.5.7c-.5,0-1,0-1.6-.4-.5-.3-1-.7-1.5-1.3-.5-.7-.8-1.4-1-2.1-.1-.8-.1-1.4,0-1.9.6-.6,1.1-1,1.5-1.3l-.6-.8c-1.4,1.1-2.5,1.8-3.3,2.1.2,1,.4,1.8.8,2.4.3.8.8,1.5,1.3,2.1.8,1,1.6,1.8,2.4,2.3.5.3,1.1.5,1.8.7.7.1,1.4.2,2,0,.8-.1,1.6-.5,2.4-1.1l1.1-1.1.5-1.1v-1.2c0-.4-.1-.9-.4-1.5-.1-.2-.4-.7-.7-1.4-.4-.7-.6-1.3-.8-1.6-.2-.6-.4-1-.4-1.3l.2-1,.8-.9c.6-.4,1.2-.6,2-.4.8.1,1.4.6,2.1,1.5.4.6.7,1.1.9,1.8.1.6.2,1.1,0,1.5-.3.3-.7.7-1.4,1.2l.5.7c.6-.5,1.2-.8,1.6-1.1l1.3-.7v-.2c0-.6-.2-1.2-.6-1.9-.3-.7-.8-1.3-1.2-2-.5-.6-1-1.2-1.6-1.7-.6-.5-1.2-.8-1.9-1-.3-.1-.7-.2-1-.2h0ZM208.5,74.8l-.8.5c.4.7.6,1.1.7,1.2v.3s0,.2,0,.2c-.2.2-.6.5-1.4,1-.3.2-1.2.8-2.4,1.5l-4,2.5c-.7.4-1.4.8-2.1,1.2-.5.3-1.1.6-1.2.7h-.2s-.3-.2-.3-.2c0,0-.4-.4-.8-1.1l-.8.5c.6.9,1.2,1.8,1.7,2.7.7,1.1,1.3,2.2,2,3.4l.8-.5c-.4-.6-.6-1-.6-1.2v-.3c0,0,0-.3,0-.3.2-.2.8-.7,1.4-1.1l1.7-1.1,3.8-2.4c.1,0,1-.6,2.5-1.5l.9-.5.7-.3h.2s.3.2.3.2c0,.1.4.5.8,1.1l.8-.5c-.7-1.1-1.4-2.1-2.1-3.2-.6-.9-1.1-1.8-1.6-2.8h0ZM51.1,75.1c-.7,0-1.4,0-2.2.3-.8.2-1.6.6-2.3,1.2-.9.7-1.7,1.7-2.5,2.8-.7,1.2-1.3,2.3-1.6,3.5-.2,1-.3,1.9,0,3,.2,1.1.6,2.1,1.2,2.9.6.9,1.5,1.7,2.7,2.5,1.5,1,3,1.5,4.3,1.6,1.4,0,2.7-.2,3.8-.9,1.2-.7,2.2-1.8,3.1-3.2.9-1.3,1.4-2.6,1.6-3.9.2-.9.1-1.9,0-2.9-.2-1-.6-1.8-1.2-2.6-.8-1.1-1.7-2-2.9-2.8-.7-.5-1.4-.8-2.1-1-.6-.2-1.3-.4-2-.4ZM48.7,78.1c.8,0,1.6.1,2.4.4.9.3,1.7.7,2.6,1.3,1.3.9,2.3,1.7,3,2.7.7.9,1,1.8,1,2.7,0,.9-.3,1.7-.8,2.5-.5.8-1.2,1.5-2,1.8-.8.4-1.8.5-3.1.2-1.2-.2-2.6-.8-4.1-1.7-1-.7-1.9-1.4-2.5-2.3-.7-.8-1-1.7-1-2.6,0-1,.3-1.9.9-2.8.5-.8,1.1-1.4,1.7-1.7.6-.3,1.3-.5,2-.5ZM213.9,83.5l-1,.5c-.2,0-1,.5-2.4,1.1l.4.9c.6-.3,1.2-.4,1.7-.6h.4s.3.3.3.3c.3.5.6,1.2.9,1.9l.6,1.5c-.2.1-1.1.5-2.8,1.2l-6.2,2.7c-1.5.7-2.4,1-2.7,1.1l-.5-.2c-.2-.1-.4-.6-.8-1.4l-.9.4c.6,1.2,1.1,2.4,1.6,3.4.4.9.9,2.1,1.4,3.5l.9-.4c-.3-.8-.5-1.4-.5-1.6l.3-.5c.3-.2,1.2-.6,2.7-1.3l6.2-2.7c1.7-.7,2.6-1.1,2.9-1.2l.6,1.5c.3.7.6,1.4.8,2.1v.4c0,0-.3.3-.3.3-.5.3-1,.6-1.5.8l.4.8c1.5-.6,2.3-.9,2.3-.9l1.2-.4v-.2c0,0-.4-.9-.4-.9-.3-.6-.8-1.8-1.5-3.5l-1.8-4.2c-.5-1.1-1-2.3-1.5-3.5l-.4-1.1h-.1ZM38.5,91.1c-.2.9-.6,1.9-1,3-.5,1.4-1,2.8-1.5,4.1l.9.4.5-1.4.3-.4h.2c.1,0,.6,0,1.3.3.8.3,1.6.5,2.5.8l8.4,3c.2,0,1,.4,2.5,1,.8.3,1.2.5,1.4.6l.4.5v.7c0,0-.4.6-.4.6l-.9.6v.3c.9.3,1.5.5,2,.7l.4-.8c.1-.4.2-.8.2-1.4,0-.5-.1-1.1-.3-1.7-.2-.6-.5-1.2-.8-1.6-.4-.7-1-1.3-1.6-1.7-.6-.5-1.5-.9-2.6-1.3l-4.6-1.6-3.9-1.4c-1.1-.4-1.9-.7-2.4-1l-.5-.3v-.5c0-.2,0-.6.3-1.3l-.9-.3ZM205.6,101.4l-.9.2.7,2.5.6,2.5.9-.2c-.2-.9-.3-1.4-.2-1.6l.3-.3c.2,0,.9,0,2,.1l1.4.2,1.4,5.7-2.2,1.5-.8.4h-.4c0-.2-.3-.7-.5-1.5l-.9.2,1,3.8.7,3.1.9-.2v-.5c0,0-.1-.7-.1-.7v-.2c0,0,.3-.3.3-.3l.9-.7,1.4-1.1,10.3-7.7-.4-1.6-2.8-.4-7.8-1.2c-1.5-.2-2.5-.3-3-.4-1.1-.2-1.7-.3-1.9-.3l-.4-.2-.2-.3c0,0-.2-.4-.4-1h0ZM35,102.2h-.2s-.1.4-.1.4c-.2.8-.3,1.3-.4,1.6l-.5,2.2c-.3,1.2-.5,2.3-.7,3.3l-.3,1.4-.7,2.5.9.2c.2-.8.4-1.3.6-1.5h.2c.2-.2.7,0,1.5,0,1.2.3,1.9.4,2.1.4l4.9,1.2c.6.1,1.5.4,2.7.7.7.2,1.2.3,1.5.5l.4,1.2h.6c.5-2.1.7-3.4.8-3.5.1-.6.4-1.8.9-3.6l.4-1.8c.2-.9.3-1.5.4-2v-.2c-1-.2-2.2-.6-3.6-1.1l-.2.9c1,.4,1.6.6,1.9.9l.2.2c0,.2,0,.6,0,1.3-.1.7-.3,1.4-.4,2.2-.2.7-.3,1.4-.6,2.1-.4,0-.8-.2-1.4-.3l-4.6-1.1c0-.5.2-1.1.3-1.8.2-.8.4-1.4.6-1.9l.4-.4c.2,0,.8,0,1.6.2l.2-1-2.4-.5-2.4-.6-.2.9c.7.2,1.1.3,1.4.5l.2.2v.7c-.2.6-.3,1.2-.4,1.8-.1.6-.3,1.1-.4,1.5l-2.2-.5c-1.3-.3-2.3-.6-3.1-.9.1-.7.2-1.4.4-2,.2-.7.4-1.4.6-2.1l.4-.8h.2c.2-.1.8,0,1.6.2l.2-.8c-.9-.3-1.4-.5-1.5-.5l-1.5-.6ZM211.8,105l6.2.9-5.1,3.7c-.2-.6-.4-1.4-.6-2.2-.2-.9-.4-1.7-.5-2.4ZM116.7,108.8c-2.7,0-5.7.6-9,2.3l-7.7,26.2s13-7.2,25.6,1.5h0c.5.4,1.4.6,2.4.6s1.9-.2,2.4-.6h0c12.6-8.7,25.6-1.5,25.6-1.5l-7.7-26.2c-11.7-6.1-20.1,1.8-20.3,2.1-.2-.2-4.6-4.3-11.3-4.4h0ZM117,110.5c3,.1,6.7.9,11,3.4h0s0,0,0,0h0c11.3-6.6,19-1.7,19-1.7l5.7,21.5c-12.7-4.1-24.4,3.6-24.7,3.8-.2-.2-12-7.9-24.6-3.8l5.6-21.5s3-1.9,8-1.7h0ZM134.1,115.1v.8c0,0,.6,0,.6,0h.2c0,.1,0,.3,0,.3v.4c0,.2,0,.7,0,1.5v1.8c0,0-.3,3.4-.3,3.4,0,1.3-.2,2.4-.2,3.4v.7c-.1,0-.2.1-.2.1h-.8c0,.1,0,1,0,1,.5,0,1,0,1.5,0,.5,0,1.2,0,2.2.2v-.9c0,0-.7-.1-.7-.1h-.2c0-.1,0-.3,0-.3,0-.1,0-.5,0-1.1,0-1,0-1.9.1-2.8l.2-3.6v-1.9c.2-.8.2-1.3.3-1.7h.7c0,0,1,.6,1,.6.2.5.3,1.1.2,2,0,.8-.2,1.5-.5,1.9l-.9.6h-.2c0,0-.2-.2-.2-.2v.2c-.1,0,0,.7,0,.7h.3c0,.1.4.2.4.2l1.4-.5c.4-.4.8-.9,1-1.5.2-.6.4-1.3.4-2,0-.7,0-1.3-.2-1.8l-.7-1-1.2-.4h-2.6c0,0-1.7-.2-1.7-.2ZM119.3,115.1c-.5,0-1,0-1.4.2l-1.3.8c-.4.4-.8.8-1.1,1.4-.3.6-.6,1.2-.7,2-.2.7-.3,1.6-.3,2.6s.1,2.3.4,3.3c.2.6.4,1.2.7,1.8.3.5.7,1,1.2,1.3.7.5,1.4.7,2.3.7s1,0,1.6-.3c.5-.2,1.1-.5,1.9-.9v-1.5c0-.3,0-.8,0-1.6v-.5s.5-.3.5-.3v-.6h-1.7s-1.7,0-1.7,0v.8c.6,0,.9.1,1.1.2v.2c.2,0,.2.5.2,1.1v.9c0,.5,0,.8,0,1l-.7.4h-.8c-.9.1-1.6-.4-2.2-1.5-.6-1.1-.9-2.6-.9-4.5s.3-3.1.9-4.1c.6-1,1.3-1.5,2.3-1.5l1.1.2.9.6.3.5v.7c0,0,0,.9,0,.9h.5c0-1.4.2-2.5.3-3v-.2c-.4-.2-.8-.4-1.4-.7-.5-.2-1.2-.3-1.8-.3h0ZM127.7,115.3l-.5,2.2-1.5,6.2c-.3,1.2-.5,2-.5,2.4-.2.9-.4,1.4-.4,1.5v.3c-.1,0-.3.1-.3.1h-.5v.9h1.3c0,0,1.3,0,1.3,0v-.8l-.8-.2v-.3c0-.2,0-.8.2-1.7l.2-1.2h2.9l.5,2.2v.8c.1,0,0,.3,0,.3h-.8v.9h2c0,0,1.6,0,1.6,0v-.8h-.2c0,0-.3-.1-.3-.1h-.1c0,0,0-.4,0-.4l-.2-.9-.3-1.3-2.5-10.1h-.8ZM141.7,115.6v.8c-.1,0,.7.3.7.3v.2c0,.1,0,.6,0,1.3-.1,1.1-.2,1.7-.3,1.9l-.6,4.3c0,.5-.2,1.3-.4,2.4-.1.6-.2,1-.2,1.3l-.6.5v.5c1.1.1,1.7.2,1.8.2.4,0,1,.2,1.9.3l.9.2h1c0,0,0,0,0,0,.1-.8.3-1.8.6-3.1h-.5c-.2.8-.3,1.4-.5,1.7v.2c0,0-.7.1-.7.1h-1.2c0-.1-1.1-.3-1.1-.3l.2-1.2.6-4h.9c0,0,1,.3,1,.3l.2.3c0,.2,0,.6-.1,1.4h.5c0,0,.3-2,.3-2l.3-2.1h-.5c0,.5-.2.9-.2,1.1v.2h-.5c-.5,0-.9-.1-.9-.1h-.8c0-.1.3-2.1.3-2.1.2-1.1.3-2,.5-2.8h1c0,0,1.1.4,1.1.4l.4.2v.2c0,.2,0,.6-.1,1.4h.4c.1-.7.2-1.2.3-1.3l.3-1.4h0c0-.1-.2-.2-.2-.2l-.8-.2h-1.2c-.6-.2-1.1-.3-1.7-.3h-.7c0,0-1.3-.3-1.3-.3ZM110.8,116.4h-.8c0,0-.3,2.3-.3,2.3l-1,6.3c-.2,1.2-.3,2-.4,2.4,0,.5-.2,1-.3,1.5v.3c0,0-.2.1-.2.1h-.6c0,.1,0,.9,0,.9l1.3-.2h1.3s0-.8,0-.8h-.8c0-.1-.1-.4-.1-.4,0-.2,0-.8.2-1.7l.2-1.2,2.9-.2.7,2.1.2.8v.3c0,0-.8.2-.8.2v.8c0,0,2-.2,2-.2h1.6c0,0,0-.9,0-.9h-.3s-.3,0-.3,0h-.1c0-.1-.1-.3-.1-.3l-.3-.9-.5-1.3-3.3-9.8ZM42,118.2c-.5,0-1,0-1.5.2l-1.1.5-.8.9c-.2.4-.4.9-.6,1.5-.1.5-.2,1-.3,1.5-.1.6-.2,1.2-.4,1.8-.2.6-.3,1-.5,1.3l-.8.6-1.2.2c-.7,0-1.3-.3-1.8-.9-.5-.6-.7-1.4-.7-2.4,0-.7.2-1.4.4-1.9.3-.6.6-1,.9-1.2.4,0,1,0,1.9,0v-.9c-.6,0-1.2,0-1.8-.2l-1.4-.3h-.3c-.3.6-.5,1.3-.7,2-.2.8-.2,1.5-.3,2.3,0,.8,0,1.5.2,2.3.2.7.4,1.4.8,2,.4.6.9,1.1,1.6,1.4.7.4,1.5.6,2.3.6.6,0,1.2,0,1.7-.3.5-.2,1-.5,1.4-.8.4-.4.7-.9.9-1.6.1-.4.4-1.3.7-2.7.2-1,.5-1.6.7-2l.8-.8,1.2-.3c.6,0,1.1.2,1.5.4.4.3.8.7,1,1.3.2.6.4,1.2.3,1.9,0,.8-.2,1.6-.6,2.3-.4.7-.8,1.2-1.3,1.5-.8,0-1.5,0-2,0v.9c1.8,0,3.1.2,3.9.5.4-.8.7-1.6,1-2.4.2-.7.3-1.5.3-2.5,0-1.2-.1-2.4-.4-3.3-.2-.6-.6-1.2-1-1.7-.4-.5-.9-1-1.5-1.3-.7-.4-1.6-.6-2.5-.6h0ZM55.6,118.2c10.3,7.7,6.6,19.2,6.6,19.2,0,0-3-12.1-4.3-14,0,0-.6-.8-1.1-.5-.2.1-.4.4-.6.9,0,0,1.8,5.2,3.1,9.4.6,1.9,1,3.7,1.1,4.5-8.4-7.2-4.8-19.6-4.8-19.6h0ZM200.9,118.2s3.6,12.4-4.8,19.6c0-.9.5-2.6,1.1-4.5h0c1.2-4.2,3.1-9.4,3.1-9.4-.1-.6-.4-.8-.6-.9-.5-.3-1.1.5-1.1.5-1.3,1.9-4.4,14-4.4,14,0,0-3.6-11.5,6.6-19.2h0ZM127.6,118.6l1.2,5h-1.2s-1.2,0-1.2,0l1.2-5ZM220.2,119c-.2,0-.4,0-.6,0-.6,0-1.2.1-1.7.3-.5.2-1,.6-1.3,1-.4.4-.6.9-.8,1.6-.1.4-.3,1.3-.5,2.7-.2,1-.4,1.6-.6,2l-.8.9-1.2.3c-.5,0-1.1,0-1.6-.3-.4-.2-.8-.6-1.1-1.2-.3-.6-.4-1.2-.5-1.9,0-.8.1-1.6.5-2.3.3-.7.7-1.2,1.2-1.5.8-.1,1.5-.2,2-.2v-.9c-1.8,0-3.1,0-4-.2-.4.8-.6,1.6-.8,2.4-.1.7-.2,1.6-.2,2.5,0,1.3.3,2.3.7,3.2.3.6.6,1.2,1.1,1.6.5.5,1,.9,1.6,1.2.7.4,1.6.5,2.6.5.5,0,1-.1,1.5-.3l1.1-.6.7-.9c.2-.4.4-.9.5-1.5,0-.3.1-.8.2-1.6.1-.8.2-1.4.3-1.8.1-.6.3-1,.5-1.3l.7-.7,1.2-.3c.7,0,1.3.2,1.8.8.5.6.8,1.3.9,2.4,0,.7,0,1.3-.3,2-.2.6-.5,1-.8,1.3-.4,0-1,.1-1.9.2v.9c.8,0,1.4,0,1.9,0l1.5.2h.3c.3-.7.4-1.3.5-2.1.1-.8.2-1.5.1-2.3,0-.8-.1-1.5-.3-2.3-.2-.7-.5-1.4-.9-1.9-.4-.6-1-1-1.7-1.3-.5-.3-1.1-.4-1.7-.4h0ZM110.2,119.9l1.6,4.9h-1.2c0,.1-1.2.2-1.2.2l.8-5.1ZM73.1,135c.5,0,1,0,1.6.1,0,0-7.2,2.2-10.7,4.9,0,0,1.4-5.3,9.1-5ZM183.4,135c7.7-.3,9.1,5,9.1,5-3.5-2.7-10.7-4.9-10.7-4.9.5,0,1.1-.1,1.6-.1ZM53.3,135.2c6.7,2.4,8.4,10.4,8.4,10.4l-2.5-1.4c-3.9-4.8-5.9-9-5.9-9h0ZM203.3,135.2s-2,4.2-5.9,9l-2.5,1.4s1.6-8,8.4-10.4ZM76,136.8s-4.3,3.7-9.6,4c0,0,5-3,9.6-4ZM180.5,136.8c4.7,1,9.6,4,9.6,4-5.3-.3-9.6-4-9.6-4h0ZM52.2,137c1.7,3.8,4.2,6.3,4.2,6.3h-.8c-3.3-3.2-3.4-6.3-3.4-6.3ZM204.3,137s0,3.1-3.4,6.3h-.8s2.5-2.5,4.2-6.3ZM37.6,138.2c-2.3,0-4.2,1.9-4.2,4.2,0,2.3,1.9,4.2,4.2,4.2,0,0,0,0,0,0,2.3,0,4.2-1.9,4.2-4.2s-1.9-4.2-4.2-4.2h0ZM218.8,138.8c-2.4,0-4.2,1.9-4.2,4.2s1.9,4.2,4.2,4.2c2.3,0,4.2-1.9,4.2-4.2,0,0,0,0,0,0,0-2.3-1.9-4.2-4.2-4.2ZM75,139.6s.4,8-5.7,11.1c0,0,2.2-4.6,3.2-9.5l2.6-1.6ZM181.5,139.6l2.6,1.6c.9,4.8,3.2,9.5,3.2,9.5-6.1-3.1-5.7-11.1-5.7-11.1ZM123.7,140.2v18.6c5.3,2.6,9,0,9,0v-18.6c-5.6,3.6-9,0-9,0ZM70.3,141.8s-1.5,6.4-2.8,8c0,0-.6-4.6.3-7.4l2.4-.6ZM186.2,141.8l2.5.6c.9,2.8.3,7.4.3,7.4-1.3-1.6-2.8-8-2.8-8h0ZM65.7,142.9s-.5,4.8,0,6.7l-1.9-2.2s-.8-3.6-1.2-4.4h3ZM190.8,142.9h3c-.4.9-1.2,4.5-1.2,4.5l-1.9,2.2c.5-1.9,0-6.7,0-6.7h0ZM52.7,144.8c8.7,0,11.7,6.4,11.7,6.4-5.1-3-13.8-5.9-13.8-5.9-.8-.2-1.3.9-1.3.9l-.7-.9c1.5-.3,2.9-.4,4.1-.5ZM203.8,144.8c1.2,0,2.6.1,4.1.5l-.7.9s-.5-1.1-1.3-.9c0,0-8.7,2.9-13.8,5.9,0,0,3-6.4,11.7-6.4h0ZM50.2,147.2c6.4,1.7,14,6.1,14,6.1-8.4,1.9-14-6.1-14-6.1ZM206.3,147.2s-5.6,8-14,6.1c0,0,7.6-4.4,14-6.1ZM210.8,151.6l-.9,2.4c0,.2-.3.7-.6,1.3l.9.9c.2.2.9.9,1.9,2l1.8,1.9c.5.5,1.1,1.2,2,2.2l-6.3.4h-1.4c0,0-1.9.1-1.9.1-.2.6-.4,1.1-.6,1.7-.2.4-.5,1.1-1,2.3l.7.3.5-.9.2-.2h.2c.2,0,.7.2,1.6.5.8.3,1.8.7,2.9,1.1,1.2.5,2.1.8,2.6,1.1,1,.4,1.7.8,2,.9l.3.2v.2c0,.1,0,.5-.3,1.2l.7.3c.2-.5.4-1.2.7-2,.2-.6.5-1.2.8-1.8l-.7-.3c-.3.5-.4.9-.5,1l-.2.2h-.3c-.1,0-.6-.2-1.6-.6-.8-.3-1.6-.6-2.4-.9l-4-1.6,5.2-.4c.8,0,2-.1,3.6-.2.9,0,1.7,0,2.2,0l.2-.6-1.1-1.2c-.8-.8-1.3-1.5-1.7-1.9l-1.5-1.6-3-3.4,5.8,2.3c1.1.4,1.8.7,2,.9l.3.3c0,.1-.1.5-.3,1.2l.7.3,1-2.5,1.1-2.5-.7-.3c-.3.6-.4.9-.5,1h-.2c0,.1-.2.1-.2.1-.2,0-.6-.1-1.3-.4-.1,0-.5-.2-1.2-.5l-2.8-1.1-2.3-.9-1-.4-.7-.5c0-.2,0-.6.2-1.1h0c0,0-.7-.4-.7-.4ZM41.5,152.7c-.8,0-1.6.1-2.5.5-1,.4-1.8,1-2.5,1.7-.5.5-.8,1.1-1.1,1.7-.3.7-.4,1.5-.4,2.2,0,1,.2,2.1.7,3.3.3.8.7,1.5,1,1.9.3.5.8,1,1.5,1.5h1c0,0,.1-.2.1-.2-.5-.4-1-.9-1.3-1.3-.3-.4-.6-.9-.8-1.5-.3-.9-.5-1.6-.5-2.3,0-.5.2-1.1.4-1.7.2-.6.7-1.1,1.2-1.7.5-.5,1.3-.9,2.1-1.3,1.4-.6,2.7-.6,3.8-.2,1.1.4,1.9,1.3,2.5,2.6.3.7.4,1.3.4,1.8,0,.5-.1,1-.3,1.6-.3.2-.8.4-1.4.7l.2.6c.6-.2,1.2-.4,1.8-.5l1-.2h0c0-.8,0-1.6-.2-2.3-.1-.6-.3-1.3-.6-2-.9-2.1-2.1-3.6-3.6-4.3-.7-.4-1.6-.6-2.4-.6h0ZM68.5,154.4s5.3,1.6,5.8,15.1l-.8-.2s-3.3-5.6-3.6-9.7c0,0-.8-4.5-1.4-5.2h0ZM188,154.4c-.6.7-1.4,5.2-1.4,5.2-.3,4.1-3.7,9.7-3.7,9.7l-.8.2c.5-13.5,5.8-15.1,5.8-15.1h0ZM66.7,154.8s1.9,5.4,1.6,6.7c0,0,1.8,6,2.6,6.8l-2.1-.3s-3.6-5.3-2.2-13.2h0ZM189.8,154.8c1.4,7.8-2.2,13.2-2.2,13.2l-2.1.3c.8-.8,2.6-6.8,2.6-6.8-.2-1.3,1.6-6.7,1.6-6.7h0ZM64.8,154.9s-.4,3.2,0,5.1l-3-2-1.4-2.7s3.3.2,4.4-.4h0ZM79.9,154.9c-1.8,1.1-5.4,4.3-5.4,4.3l-.4-1.2c2.2-3.3,5.8-3.2,5.8-3.2ZM176.6,154.9s3.6-.1,5.8,3.2l-.4,1.2s-3.6-3.2-5.4-4.3h0ZM191.7,154.9c1.1.6,4.4.4,4.4.4l-1.4,2.7-2.9,2c.3-1.9,0-5.1,0-5.1h0ZM81.9,155.8c-.8,4.6-6.3,7.2-6.3,7.2l-.3-1.9c1.6-2.1,6.7-5.3,6.7-5.3h0ZM174.6,155.8s5,3.2,6.7,5.3l-.3,1.9s-5.5-2.6-6.3-7.2h0ZM57,159.3c8.1,0,9,6.7,9,6.7-4.9-5-12.1-6.3-12.1-6.3-1.8,0-.7,1.5-.7,1.5,7.7,2.2,10.7,5.6,10.7,5.6-5.9-.6-12.3-6.8-12.3-6.8,2-.5,3.8-.7,5.3-.7h0ZM199.5,159.3c1.5,0,3.3.2,5.3.7,0,0-6.3,6.1-12.2,6.8,0,0,3-3.4,10.7-5.6,0,0,1.1-1.5-.7-1.5,0,0-7.2,1.3-12.1,6.3,0,0,.9-6.6,9-6.7h0ZM49.1,162.3l-.6.3c.3.6.5,1,.5,1.2v.2c-.2.1-.6.4-1.2.7l-1.6.9-2.9,1.6-2.3,1.1-.9.4h-.2c0,0-.2,0-.2,0,0,0-.3-.4-.6-1l-.7.4c.4.7.8,1.5,1.2,2.2.5.9.9,1.8,1.4,2.7l.7-.4-.4-.9v-.2s0-.2,0-.2l.5-.4c.1,0,.7-.4,1.8-1,.8-.5,1.6-.9,2.5-1.3.5-.3,1.5-.8,2.9-1.5.7-.3,1.1-.5,1.3-.6l.4.7c.3.6.5,1,.5,1.2l-.2,1.2-1,1-1.4.3-1.2-.4c-.3-.2-.6-.7-1-1.3h-.3s-.3.8-.3.8c-.2.6-.7,1.3-1.2,2.2l-1.8,3.1-.3.4.7,1.2c.2.4.5.9.9,1.7l.6-.3-.2-.5v-.3c0-.1.3-.5.6-1.2,0,0,.2-.3.5-.9l1.2-2.2v-.2c0,0,.4-.5.4-.5l.5-.8c.7.6,1.5,1,2.2,1.1.7.1,1.4,0,2-.3.5-.3.9-.6,1.1-1.1l.2-1.4c0-.5-.4-1.1-.8-1.9-.3-.5-.6-1.1-.9-1.6-.2-.4-.5-.8-.8-1.4-.3-.6-.6-1.1-.8-1.5-.4-.7-.6-1.1-.6-1.3h0ZM113.9,163.7c-1.5.6-2.6,1-3.4,1.2-.7.2-1.7.5-2.9.9h0c0,0,.1.7.1.7v.7c0,0,.2,0,.2,0,.4-.2,1.2-.6,2.5-1.2l.4-.2h.2c0,.1,0,.5,0,.5v.9c0,1,0,1.9,0,2.7v2.4c0,1.8,0,3-.1,3.5l-.2.5-.5.2-1.9.2v.8c2.2,0,3.7,0,4.3,0,.9,0,2.1,0,3.6,0v-.8h-.7c-.8,0-1.3-.2-1.4-.2l-.2-.2c0-.2-.1-.6-.1-1.5,0-.6,0-1.6,0-3.1v-1.5c0-2.4,0-3.9,0-4.5,0-.2,0-.5,0-1,0-.5,0-.9,0-1h-.2ZM136.5,163.7c-.1,0-.6,0-1.3.3l-1.2.2c-.3.4-.8,1.1-1.4,2.1-.6,1-1.4,2.5-2.4,4.3-.7,1.3-1.1,2.2-1.3,2.8v.9c1.4,0,2.6,0,3.8,0h1.4c0,1.1,0,1.7,0,1.8l-.2.6h-.3c-.2.2-.8.2-1.9.3v.8h3.5c0,0,2.6,0,2.6,0h.8s0-.8,0-.8h-1.3c0-.1-.4-.3-.4-.3l-.2-.3c0-.4,0-1,0-2.1h1.9v-.8c0,0,0-.9,0-.9h0c0-.1-1.5,0-1.5,0h-.4v-2.3c0-2.2,0-3.5,0-4.2,0-.9,0-1.7.1-2.1l-.2-.2ZM123,163.9c-1.3,0-2.4.4-3.2,1.3-.9.9-1.3,2.1-1.3,3.6s.3,2.2.9,2.9c.6.6,1.3,1,2.2,1l1.5-.2.4-.2c.2-.2.7-.6,1.3-1.2-.1,1.1-.2,1.8-.4,2.3-.2.6-.5,1.3-.9,1.8-.4.5-.9,1-1.5,1.3-.6.3-1.2.5-1.9.5h-.7c0-.1-.2.3-.2.3l.8.6c1,0,1.9-.2,2.8-.5.9-.4,1.6-.9,2.4-1.6.7-.7,1.3-1.6,1.7-2.6.4-1,.6-2.2.6-3.6s-.2-2.3-.5-3c-.3-.8-.8-1.5-1.5-2-.6-.5-1.5-.8-2.5-.8ZM145,163.9c-.5,0-1.1,0-1.6.2l-1.3.8c-.4.3-.7.8-1,1.3-.3.5-.5,1.1-.6,1.8-.2,1-.2,2-.2,3.2s0,2,.2,2.9c.1.9.4,1.6.8,2.2.4.6.8,1,1.4,1.3.6.3,1.3.4,2,.4s1.2,0,1.7-.3l1.3-.8c.4-.4.7-.8,1-1.4.3-.6.5-1.3.6-2.2.1-.8.2-1.8.2-3s-.1-2.8-.4-3.7c-.3-.9-.7-1.6-1.4-2.1-.6-.5-1.5-.7-2.6-.7ZM122.7,165c.7,0,1.2.3,1.5,1,.3.6.5,1.5.5,2.7s0,1-.2,1.3l-.6.7-.9.3-1-.4-.8-1c-.2-.5-.3-1.1-.3-1.8s.2-1.7.5-2.2c.3-.4.8-.7,1.3-.7h0ZM144.7,165l.8.3.6.8c.2.4.3,1,.4,1.7.2,1.4.3,2.8.3,4.2,0,2.2-.2,3.5-.5,4.1-.4.5-.8.8-1.4.8l-1.2-.6c-.3-.4-.6-1.2-.7-2.4-.1-1.2-.2-2.6-.2-4.2s.1-2.6.3-3.3c.1-.5.4-.9.6-1.1l1-.3ZM134.1,165.6v1.9c0,0,0,1.3,0,1.3v3.7h-3.7c.7-1.6,1.3-2.7,1.7-3.5.4-.7,1.1-1.9,2-3.4h0ZM85,166.9c7.4,6,8,15.8,8,15.8-3-1.3-6.9-13.5-6.9-13.5-.2-1.2-1.5-.8-1.5-.8,0-.8.4-1.5.4-1.5h0ZM171.5,166.9s.3.6.4,1.5c0,0-1.3-.4-1.5.8,0,0-3.9,12.2-6.9,13.5,0,0,.5-9.8,8-15.8h0ZM204.2,167.1l-1,1.7v.2c-.5.5-.8,1.1-1.2,1.6l.6.4c.3-.5.6-.9.8-1h.3c.1,0,.6.2,1.2.5.3.2,1.1.7,2.4,1.5l1.5.9c1,.7,1.7,1.2,2,1.6.3.4.4.9.4,1.4,0,.6-.3,1.2-.7,1.9-.4.6-.8,1-1.2,1.3l-1.2.5-1.3-.4c-.2-.1-.8-.4-1.7-1l-.9-.5-1.7-1.1c-1.1-.7-1.7-1.1-2-1.4l-.2-.3c0-.2.2-.6.5-1.1l-.6-.4-.2.3-.6,1-.6,1-1.6,2.4.6.4.7-.9h.3s.5.2.5.2c.6.3,1.2.7,1.9,1.1l1.9,1.2,1.4.9c.8.5,1.3.8,1.5.8l1.1.3,1.3-.2,1.3-.8c.6-.6,1.2-1.2,1.6-1.9.4-.6.7-1.2.9-1.8.2-.6.2-1.1.2-1.7,0-.5-.2-1-.4-1.4l-1-1.2-1.3-1-1.7-1.1c-.7-.4-1.4-.9-2.1-1.4-.9-.6-1.4-.9-1.4-1.1v-.3c-.1,0,.3-.9.3-.9l-.6-.4ZM65.1,169.4c12.3.1,16.2,8.4,16.2,8.4-8.6-5.8-15.9-7.7-15.9-7.7-1.4-.5-1.3,1-1.3,1-.8-.4-1.5-1.6-1.5-1.6.9,0,1.7,0,2.6,0h0ZM191.4,169.4c.9,0,1.7,0,2.6,0,0,0-.8,1.1-1.5,1.6,0,0,0-1.6-1.3-1,0,0-7.3,2-15.9,7.7,0,0,3.9-8.2,16.2-8.4h0ZM84.2,169.6c5.3,15.3,8.8,15.5,8.8,15.5v.6c-11.2-4.4-8.8-16.1-8.8-16.1h0ZM172.3,169.6s2.4,11.8-8.8,16.1v-.6s3.6-.3,8.8-15.5h0ZM64.6,171.6s5.2,1.2,15.5,7.6c0,0-9.1.4-15.5-7.6h0ZM191.9,171.6c-6.4,8-15.5,7.6-15.5,7.6,10.3-6.4,15.5-7.6,15.5-7.6h0ZM54.8,172.7l-.6.4c.4.6.6.9.6,1.1v.2c-.1.1-.4.4-.9.8-.8.6-1.2.9-1.4,1l-3.2,2.3c-.4.2-1,.7-1.8,1.2l-1,.6-.9-.4-.4.3c1.1,1.4,1.6,2.2,1.7,2.3.3.4.8,1.2,1.6,2.3l.8,1.2c.4.6.7,1,1,1.3h.2c.6-.4,1.4-.9,2.4-1.5l-.4-.6c-.7.4-1.2.6-1.5.7h-.2l-.7-.7-1.1-1.4c-.3-.5-.6-.9-.9-1.4l.9-.7,3-2.1.9,1.1.8,1.3v.4c0,.2-.3.4-.9.8l.5.6,1.5-1.1,1.6-1.1-.4-.6-1,.6h-.2l-.4-.4c-.5-.7-.8-1.1-.9-1.2l-.7-1,1.5-1.1c.8-.6,1.5-1,2.1-1.4l1,1.3c.3.5.6.9.9,1.5l.3.6v.2c-.2.1-.5.4-1.1.8l.4.6c.6-.4,1-.6,1.1-.7l1.1-.6h0c0-.1-.1-.4-.1-.4-.2-.4-.5-.7-.7-1.1l-1.1-1.4c-.6-.8-1.1-1.5-1.6-2.1l-.7-.9-1.1-1.7ZM93.7,175.4s.8,0,1.8.5c0,0-.9.5-.2,1.7,0,0,6.1,5.5,11.2,11.5,0,0-6.3-.5-12.7-13.7h0ZM162.8,175.4c-6.4,13.2-12.7,13.7-12.7,13.7,5-6,11.2-11.5,11.2-11.5.7-1.2-.2-1.7-.2-1.7,1-.4,1.8-.5,1.8-.5h0ZM97.1,176.6c6.5,1.8,9.5,9.8,9.5,9.8-.3-.9-9.5-9.8-9.5-9.8ZM159.4,176.6s-9.1,8.8-9.4,9.8c0,0,2.9-8,9.4-9.8ZM196.9,178.4c-.6.8-1.2,1.6-1.8,2.4-.6.8-1.1,1.4-1.6,2l.6.5.7-.8h.2c0-.1.2,0,.2,0,.2,0,.5.3,1.2.8.3.2.9.7,1.8,1.3l2.9,2.2c.5.4,1,.8,1.5,1.2l.6.5v.2c0,0,0,.3,0,.3l-.6.8.6.5c.5-.7,1-1.4,1.5-2,.7-.9,1.3-1.6,1.9-2.4l-.6-.5-.7.8h-.2c0,.1-.2.1-.2.1l-1-.6-1.3-.9-2.8-2.2c0,0-.7-.5-1.8-1.4l-.7-.5-.4-.4h0c0-.1,0-.4,0-.4l.6-.9-.6-.5ZM107.3,180.1c12.4,4.2,12.2,13.1,12.2,13.1-1.6-.5-9.6-10.7-9.6-10.7-2.1-.9-1.3,1.2-1.3,1.2,3,3.7,7.4,9,7.4,9-7.2-1.4-8.8-12.7-8.8-12.7h0ZM149.2,180.1s-1.6,11.3-8.8,12.7c0,0,4.4-5.3,7.5-9,0,0,.8-2.2-1.3-1.2,0,0-8,10.2-9.6,10.7,0,0-.2-8.9,12.2-13.1h0ZM94.8,181s2.6,3.8,3.3,4.6l-2,.2s.1-1.2-1.2-1.5v-3.2ZM161.7,181v3.2c-1.4.3-1.2,1.5-1.2,1.5l-2-.2c.7-.8,3.2-4.6,3.2-4.6h0ZM77.9,181.1c4.1-.1,7.5,1.3,7.5,1.3.2.5,3.1,3,3.1,3-4.7-1.4-13.6-2.9-13.6-2.9-1.6.5-.3,1.6-.3,1.6,7,1.3,14.3,3.3,14.3,3.3-10.8,3-18.5-3.9-18.5-3.9,2.4-1.8,5.1-2.5,7.5-2.5h0ZM178.6,181.1c2.5,0,5.2.7,7.5,2.5,0,0-7.7,6.9-18.5,3.9,0,0,7.2-2,14.3-3.3,0,0,1.3-1.2-.3-1.6,0,0-8.9,1.5-13.6,2.9,0,0,2.9-2.5,3.1-3,0,0,3.4-1.4,7.5-1.3h0ZM193.4,183.1l-.5.6c-.3.3-1,1.1-2,2.1l-2.5,2.6c-1,1-1.7,1.7-2,2l-.6.6h0c0,.1.6.6.6.6.1,0,.6.5,1.5,1.4l.5-.5-.9-1.1v-.3c-.1,0,0-.3,0-.3l1.1-1.3.9-.9c.2,0,.7.7,1.7,1.7l3.8,3.7c.9.9,1.4,1.4,1.6,1.7v.4c0,0-.7,1-.7,1l.5.5c.7-.8,1.4-1.5,2-2.1.5-.5,1.2-1.2,2-2l-.5-.5-1,.8h-.4c-.2-.2-.8-.7-1.7-1.6l-3.8-3.6c-1-1-1.6-1.5-1.7-1.7l.9-.9,1.2-1.2h.2c0-.1.3,0,.3,0l1,.8.5-.5c-.9-.9-1.3-1.3-1.4-1.4l-.6-.7h-.1ZM64.5,185.2l-2,.8-5.7,2.1c-1.1.4-1.8.7-2.2.8-.8.3-1.3.4-1.4.5h-.3s-.2,0-.2,0l-.6-.6-.5.5,1.4,1.5,1.3,1.5.5-.5c-.4-.5-.7-.9-.7-1v-.3c.3-.1.7-.4,1.5-.7l1-.4,3,3.3-.9,1.9-.4.6h-.3c-.1,0-.4-.2-.9-.7l-.5.5,2.1,2.2,1.6,1.8.5-.5-.2-.3-.3-.4v-.2s0-.3,0-.3l.4-.8.5-1.2,4.1-9-.8-.9ZM62.1,187.2l-2.1,4.4c-.4-.4-.8-.8-1.2-1.3l-1.2-1.4,4.5-1.7ZM96.5,187.7c1.4,0,2.9.2,4.6.9,0,0-11.3,3.4-12.5,4,0,0-.7.2-.6,1h-1.1s3.5-5.7,9.6-5.9h0ZM160,187.7c6.1.2,9.6,5.9,9.6,5.9h-1.1c.1-.7-.5-.9-.5-.9-1.3-.6-12.6-4-12.6-4,1.7-.7,3.2-.9,4.6-.9h0ZM68.1,189.5l-.4.7c0,.1-.5.7-1.2,1.6l.6.5,1-1,.3-.2.3.2,1.3,1,1,.8c0,.1-.6.8-1.5,1.9l-3.3,4.1c-.8,1-1.3,1.6-1.5,1.7h-.4c-.2,0-.5-.1-1.1-.6l-.5.6c.9.6,1.6,1.2,2.3,1.7.6.5,1.3,1.1,2.2,1.8l.4-.5c-.5-.5-.8-.8-.9-.9v-.4c.1-.2.6-.8,1.4-1.8l3.3-4.1c.9-1.1,1.4-1.7,1.5-1.8l1,.8c.4.4.9.7,1.3,1.1l.2.2v.4c-.1,0-.9,1.1-.9,1.1l.6.5c.8-.9,1.2-1.5,1.2-1.5l.7-.7h0c0-.1-.7-.6-.7-.6-.4-.3-1.2-.9-2.3-1.8l-2.7-2.2c-1.1-.9-1.9-1.5-2.2-1.8l-.6-.6h-.1ZM103.4,189.9l.8.4s-5.3,3.7-13.2,3.3c0,0,10.2-3.4,12.3-3.7ZM153.1,189.9c2.1.3,12.3,3.7,12.3,3.7-7.8.4-13.2-3.3-13.2-3.3l.9-.4ZM106.1,191.2l2,.4c-2.2,2-5.8,2.5-5.8,2.5,1.4-1.1,3.8-2.9,3.8-2.9h0ZM150.4,191.2s2.4,1.8,3.8,2.9c0,0-3.7-.5-5.8-2.5l2-.4ZM185.2,191.3c-.7.7-1.5,1.4-2.3,2-.6.5-1.3,1.1-2,1.6l.5.6.9-.7h.2s.2,0,.2,0c.2.1.5.4,1,1,.2.3.7.8,1.5,1.7l2.4,2.8c.4.5.8,1,1.2,1.5l.5.7v.2s0,.2,0,.2l-.8.7.5.6c.6-.5,1.2-1.1,1.9-1.7.8-.7,1.6-1.3,2.4-1.9l-.5-.6-.8.6h-.3c0,0-.2,0-.2,0l-.8-.8-1.1-1.2-2.3-2.7c0,0-.6-.7-1.5-1.8l-.5-.7-.3-.5v-.2s.1-.2.1-.2l.8-.7-.5-.6ZM180.8,195.3l-1.6,1.1-1.9,1.2.4.6.8-.5h.3c0-.1.2,0,.2,0l.2.2v.2c.2.2.3.7.5,1.4.2,1.1.4,1.6.4,1.8l1,5.1-4.8-3.3h-.1c0-.1-.8-.6-.8-.6-.8-.6-1.3-.9-1.4-1.1v-.2c0,0,0-.2,0-.2l.8-.7-.4-.6-2.6,1.7c-.3.2-1,.6-2.2,1.4l.4.6,1-.5.8.4c.4.2,1.7,1.1,3.8,2.5l2.7,1.8c1,.7,2,1.4,3.1,2.1l1.1-.7c-.3-1-.6-2.8-1.1-5.4l-.6-3-.3-1.6c-.3-1.3-.3-2-.3-2.2l.7-.7-.4-.6ZM128.3,195.8c7,.2,13,2.3,13,2.3-5.9,1.3-12.1,1.3-12.9,1.2h0c-.8,0-7,0-12.9-1.2,0,0,6-2.2,13-2.3ZM77.1,196.8l-.4.6c.5.4.8.6.9.7v.2c.1,0,0,.2,0,.2,0,.2-.3.6-.6,1.2-.2.3-.6.9-1.2,1.9l-2,3.1c-.3.5-.7,1-1.1,1.6l-.5.6h-.2c0,0-.3,0-.3,0,0,0-.4-.2-.9-.5l-.4.6c.6.4,1.3.8,2.1,1.3.9.6,1.8,1.1,2.5,1.7l.4-.6-.9-.6-.2-.2v-.2l.6-1,.9-1.4,1.9-2.9c0,0,.5-.7,1.3-1.9l.5-.7.4-.4h.2c0,0,.2,0,.2,0l.9.5.4-.6c-.9-.5-1.7-1-2.6-1.6-.8-.5-1.5-1-2.1-1.4h0ZM82,200.3l-.3.7.9.6c0,.1.1.4.1.9,0,.5-.1,2-.3,4.5l-.3,3.2c0,1.2-.2,2.4-.3,3.7l1.2.6c.8-.7,2.1-1.9,4.1-3.6l2.3-2,1.2-1c1-.9,1.6-1.3,1.8-1.3.1,0,.5,0,1,.3l.4-.7-1.7-.8-1.9-1.1-.3.7.8.5.3.2v.2s0,.2,0,.2v.2c-.3.2-.6.5-1.2,1-.8.7-1.2,1.1-1.3,1.2l-3.9,3.4.5-5.8v-.2c0,0,0-.4,0-.9,0-1,.2-1.6.3-1.7l.2-.2h.3s1,.4,1,.4l.3-.7-2.8-1.3c-.3-.1-1-.6-2.3-1.2ZM167.9,203.5c-.5,0-1.1.3-1.9.7-.4.2-1,.5-1.6.8-.4.2-.9.5-1.4.7-.6.3-1.1.6-1.5.7-.7.3-1.1.5-1.3.6l.3.6c.7-.3,1.1-.4,1.3-.4h.2c.1.2.3.6.7,1.2l.8,1.6,1.5,2.9,1.1,2.3.4,1v.3s0,.1,0,.1c0,0-.4.3-1,.6l.3.7c.7-.4,1.4-.8,2.2-1.2.9-.5,1.8-.9,2.8-1.3l-.3-.7c-.5.2-.8.4-.9.4h-.4s-.4-.6-.4-.6c0-.1-.4-.7-.9-1.8-.4-.8-.9-1.7-1.3-2.5-.2-.5-.7-1.5-1.4-3-.3-.7-.5-1.1-.6-1.3l.7-.4c.6-.3,1-.4,1.2-.5l1.2.2,1,1,.3,1.5-.4,1.2c-.2.3-.7.6-1.3.9v.3s.8.3.8.3c.6.3,1.3.7,2.2,1.3l3,1.9.4.3,1.2-.6c.3-.2.9-.5,1.8-.8l-.3-.7-.5.2h-.4c-.1,0-.5-.3-1.2-.6,0,0-.4-.2-.9-.5l-2.1-1.2h-.2c0,0-.5-.4-.5-.4l-.8-.5c.7-.7,1.1-1.4,1.2-2.1.1-.7,0-1.4-.3-2-.3-.5-.6-.9-1.1-1.1l-1.4-.2ZM94.2,206.5l-.3.7c.6.3.9.4,1,.4l.2.2v.2c0,.2-.1.6-.4,1.3-.1.3-.4,1-.8,2.1l-1.3,3.4c-.2.6-.4,1.2-.8,1.8l-.3.8h-.1c0,0-.2,0-.2,0-.1,0-.4,0-1-.3l-.3.7c.7.3,1.5.5,2.4.9,1,.4,2,.8,2.8,1.1l.3-.7c-.5-.2-.8-.4-1-.4l-.2-.2v-.2c0-.2,0-.6.3-1.1l.5-1.5,1.2-3.3c0-.1.3-.8.9-2.1l.3-.8.3-.5h.1c0,0,.3,0,.3,0,.1,0,.5.1,1,.3l.3-.7c-.9-.3-1.8-.6-2.9-1-.9-.4-1.7-.7-2.3-1h0ZM159.3,207.4h-.3c-.6.2-1,.4-1.2.4l-1.7.6c-.9.3-1.8.6-2.5.9l-1.1.3-1.9.6.2.7c.7-.2,1.1-.3,1.3-.2h.2c0,.2.3.6.5,1.2.2.5.4,1.1.6,1.6l1.2,3.8c.1.4.4,1.1.6,2.1.1.5.3.9.3,1.2l-.7.7.2.5c1.7-.6,2.6-.9,2.8-1,.5-.2,1.4-.4,2.7-.9l1.4-.4c.5-.2,1-.4,1.5-.6v-.2c-.2-.7-.4-1.6-.6-2.7l-.7.2c.1.8.2,1.3.2,1.6v.2c0,0-.9.5-.9.5-.5.2-1,.4-1.6.6-.6.2-1.2.4-1.6.5l-.4-1-1.2-3.5c.3-.1.8-.3,1.3-.5.5-.2,1-.3,1.5-.4h.4c.1.2.3.6.5,1.2l.7-.2-.6-1.8-.6-1.9-.7.2c.2.5.2.8.2,1.1v.2s-.6.2-.6.2c-.8.3-1.2.4-1.4.5l-1.2.4-.6-1.7c-.3-1-.6-1.8-.7-2.4.5-.2,1-.4,1.5-.5.5-.2,1.1-.3,1.6-.4h.7c0,0,.2,0,.2,0,0,.1.3.5.5,1.2l.7-.2c-.2-.7-.3-1.1-.3-1.2l-.2-1.2h0ZM100.1,208.6h-.1c0,0-.1.9-.1.9,0,.1-.2.8-.5,2l.7.2.5-1.3.2-.2h.4c.5.1,1,.2,1.6.4l1.2.3c0,.2-.2.9-.7,2.3l-1.5,5c-.3,1.2-.6,1.9-.7,2.2l-.4.3c-.1,0-.5,0-1.2-.2l-.2.7c1.1.3,2,.5,2.8.7.8.2,1.7.5,2.7.9l.2-.7c-.7-.2-1.1-.4-1.2-.5l-.2-.4c0-.3.2-1,.5-2.2l1.5-5c.4-1.3.6-2.1.7-2.3l1.2.4c.7.2,1.2.4,1.7.5h.3v.5l-.3,1.3.7.2c.4-1.2.5-1.8.6-1.9l.4-.9h0c0,0-.8-.3-.8-.3-.5-.1-1.4-.4-2.9-.8l-3.4-1c-1.4-.4-2.3-.7-2.8-.8l-.8-.3ZM147.3,210.8c-.6,0-1.2,0-1.8.2-.6.1-1.1.3-1.7.5-.5.2-1,.6-1.4.9-.4.4-.7.9-.8,1.5-.2.6-.2,1.2,0,1.9l.5,1.2.9.9c.3.2.8.4,1.3.4.4,0,1.1,0,2.1,0,.8,0,1.3,0,1.6.2l.8.5.4.9v1.2c0,0-.8,1-.8,1-.4.3-.9.5-1.4.6-.6.1-1.2.1-1.8,0-.6-.2-1-.4-1.3-.7-.2-.6-.3-1.1-.4-1.5h-.7c.2,1.5.3,2.5.3,3.2.7.2,1.4.3,2,.3.6,0,1.2,0,1.9-.2.9-.2,1.7-.5,2.4-.9l1.1-1,.7-1.3c.2-.6.2-1.3,0-2l-.4-1.1-.5-.8-.8-.4-1.2-.2c-.2,0-.6,0-1.2,0s-1.1,0-1.4,0l-1.1-.2-.6-.5-.4-.9c-.1-.5,0-1,.4-1.5.4-.5.9-.8,1.7-.9.5-.1,1-.1,1.5,0l1.1.5c.1.2.2.7.4,1.4h.7c-.1-.7-.1-1.2-.2-1.6v-1.1s-.1-.2-.1-.2c-.4-.1-1-.2-1.6-.2h0ZM114.8,211.8l-1.1,1.8-3.2,5.2c-.6,1-1,1.6-1.2,2-.5.7-.7,1.1-.8,1.2l-.2.2h-.3c0,0-.8,0-.8,0v.7c-.1,0,1.9.3,1.9.3l2,.4v-.7c-.6-.1-1-.3-1.1-.3v-.3c0-.2.2-.7.6-1.4l.6-1,4.4.7.4,2v.7c0,0-.1.2-.1.2,0,0-.5,0-1.2,0v.7c-.1,0,2.9.5,2.9.5l2.4.5v-.7c.1,0-.3-.1-.3-.1h-.5c0-.1-.2-.3-.2-.3v-.3c-.1,0-.3-.8-.3-.8l-.3-1.3-2.4-9.7-1.2-.2ZM127.3,212.8c-.6,0-1.2,0-1.8.2-.6.1-1.1.4-1.5.6-.5.3-.8.8-1.1,1.3-.3.6-.4,1.1-.4,1.8l.2,1.3.7,1c.3.3.7.5,1.2.7.3,0,1,.3,2.1.5.7.2,1.3.3,1.5.5l.6.6.2,1-.3,1.2-.9.8c-.5.2-.9.3-1.5.3-.6,0-1.2-.2-1.8-.4-.5-.3-.9-.6-1.1-1,0-.6-.1-1.1,0-1.6h-.7c0,1.4-.1,2.4-.3,3,.7.3,1.3.6,1.8.7.5.1,1.2.2,1.9.2s1.8-.1,2.5-.4l1.3-.8,1-1.1c.3-.6.5-1.2.5-2v-1.1c-.1,0-.6-.9-.6-.9l-.7-.6-1.2-.5c-.2,0-.6-.1-1.2-.2-.6-.1-1.1-.2-1.4-.3l-1-.4-.5-.6-.2-1c0-.5.2-1,.7-1.4.4-.4,1-.6,1.8-.6.6,0,1.1.1,1.5.3l.9.7c0,.3,0,.8,0,1.4h.7c0-.6,0-1,0-1.4l.2-1.1v-.2c-.5-.2-1-.4-1.6-.5-.6,0-1.2-.2-1.8-.2h0ZM114.2,214.8l1.1,4.8c-.5,0-1.1-.2-1.8-.3-.6-.1-1.2-.2-1.8-.3l2.5-4.2Z"/>
</svg>