<?xml version="1.0" encoding="UTF-8"?>
<svg id="_레이어_1" xmlns="http://www.w3.org/2000/svg" version="1.1" viewBox="0 0 256 256">
  <!-- Generator: Adobe Illustrator 29.0.0, SVG Export Plug-In . SVG Version: 2.1.0 Build 186)  -->
  <defs>
    <style>
      .st0, .st1 {
        fill: #f60;
      }

      .st2 {
        fill: #242938;
      }

      .st1 {
        display: none;
      }
    </style>
  </defs>
  <rect class="st2" width="256" height="256" rx="57.5" ry="57.5"/>
  <path class="st0" d="M19.4,181.7v11.7c3.6,21.5,17.6,38.8,42.6,43.1h13.7c-31.9-6.4-47.3-24.3-56.3-54.8ZM164.8,150.2c0-35.9-30.5-68-73.5-68s-55.7,10.7-71.9,26.9v37.7c10.8-32.3,41.3-46.7,66.4-46.7s55.6,23.3,55.6,52.1-10.8,44.9-39.4,50.2c-16.1,1.8-41.3-7.2-39.4-30.5,0-12.6,10.8-19.8,21.5-19.8-10.8,14.3,3.6,25.1,14.3,23.3,10.8-1.8,18-12.6,18-21.5s-9-23.3-30.5-23.3-43.1,19.8-43.1,43.1,26.9,48.4,55.6,48.4c41.3,0,66.4-23.3,66.4-62.8M19.4,67.7v14.3c19.8-16.1,44.9-23.3,71.8-23.3,61,0,100.5,43.1,100.5,96.9s-18,66.4-44.9,80.8h41.3c26.9,0,48.4-21.5,48.4-48.4v-120.2c0-26.9-21.5-48.4-48.4-48.4h-120.3c-26.9,0-48.4,21.5-48.4,48.4Z"/>
  <path class="st1" d="M0,9.3c0,1.5,1.2,2.7,2.7,2.7"/>
</svg>