<?xml version="1.0" encoding="UTF-8"?>
<svg id="_레이어_1" xmlns="http://www.w3.org/2000/svg" version="1.1" viewBox="0 0 256 256">
  <!-- Generator: Adobe Illustrator 29.0.0, SVG Export Plug-In . SVG Version: 2.1.0 Build 186)  -->
  <defs>
    <style>
      .st0 {
        fill: #ff9100;
      }

      .st1 {
        fill: #fff;
      }

      .st2 {
        fill: #242938;
      }
    </style>
  </defs>
  <rect class="st2" x=".2" y="0" width="256" height="256" rx="57.5" ry="57.5"/>
  <g>
    <path class="st1" d="M128,124.5l-41.2-45.3c1.6-1.6,3.5-2.9,5.6-3.8,2.1-.9,4.4-1.4,6.9-1.4,2.6,0,5,.5,7.1,1.5s4,2.4,5.6,4.1l16,17.5,15.9-17.5c1.6-1.8,3.6-3.1,5.8-4.1s4.6-1.5,7.1-1.5c2.4,0,4.7.5,6.9,1.4s4,2.2,5.6,3.8l-41.2,45.3Z"/>
    <path class="st1" d="M128,131.5l41.2,45.3c-1.6,1.6-3.5,2.9-5.6,3.8-2.1.9-4.4,1.4-6.9,1.4-2.6,0-5-.5-7.1-1.5s-4-2.4-5.6-4.1l-16-17.5-15.9,17.5c-1.6,1.8-3.6,3.1-5.8,4.1s-4.6,1.5-7.1,1.5c-2.4,0-4.7-.5-6.9-1.4s-4-2.2-5.6-3.8l41.2-45.3Z"/>
    <path class="st0" d="M124.5,128l-31-34c-1.8-1.9-3.9-3.4-6.3-4.6s-5-1.7-7.8-1.7c-2.7,0-5.2.5-7.5,1.5-2.3,1-4.4,2.4-6.1,4.1l31.5,34.6-31.5,34.6c1.8,1.8,3.8,3.2,6.1,4.2,2.3,1,4.8,1.5,7.5,1.5,2.8,0,5.4-.6,7.8-1.7s4.5-2.6,6.3-4.6l31-34.1Z"/>
    <path class="st0" d="M131.5,128l31-34c1.8-1.9,3.9-3.4,6.3-4.6,2.4-1.1,5-1.7,7.8-1.7,2.7,0,5.2.5,7.5,1.5,2.3,1,4.4,2.4,6.1,4.1l-31.5,34.6,31.5,34.6c-1.8,1.8-3.8,3.2-6.1,4.2s-4.8,1.5-7.5,1.5c-2.8,0-5.4-.6-7.8-1.7s-4.5-2.6-6.3-4.6l-31-34.1Z"/>
  </g>
</svg>